<?xml version="1.0" encoding="utf-8"?>
<!-- Generator: Adobe Illustrator 21.0.0, SVG Export Plug-In . SVG Version: 6.00 Build 0)  -->
<svg version="1.1" id="Ebene_1" xmlns="http://www.w3.org/2000/svg" xmlns:xlink="http://www.w3.org/1999/xlink" x="0px" y="0px"
	 viewBox="0 0 485.9 218.1" style="enable-background:new 0 0 485.9 218.1;" xml:space="preserve" width="486" height="218">
<g>
	<polygon style="fill:#005C59;stroke:#FFFFFF;stroke-width:1.0001;stroke-miterlimit:3.8637;" points="0.5,67.9 26,67.9 26,118.9 
		71.4,67.9 105.4,67.9 54.4,127.4 102.5,191.2 180.5,1.3 274,212.5 247.1,212.5 180.5,67.9 121,212.5 87,212.5 26,133.1 26,212.5 
		0.5,212.5 0.5,67.9 	"/>
	<polygon style="fill:#E30613;" points="129.5,212.5 180.5,83.5 238.6,212.5 129.5,212.5 	"/>
	<polygon style="fill:#005C59;stroke:#FFFFFF;stroke-width:1.0001;stroke-miterlimit:3.8637;" points="241.4,67.9 241.4,93.4 
		286.8,93.4 286.8,212.5 312.3,212.5 312.3,93.4 354.8,93.4 354.8,67.9 241.4,67.9 	"/>
	<path style="fill:#005C59;stroke:#FFFFFF;stroke-width:1.4173;stroke-miterlimit:3.8637;" d="M485.2,141.2
		c0-42.1-28.2-76.1-63.1-76.1s-63.1,34.1-63.1,76.1s28.2,76.1,63.1,76.1S485.2,183.3,485.2,141.2l-25.1,0.4c0,28.2-17.1,51-38.3,51
		s-38.3-22.8-38.3-51c0-28.2,17.1-51,38.3-51s38.3,22.8,38.3,51L485.2,141.2L485.2,141.2z"/>
	<polygon style="fill:#005C59;" points="461,140.5 460.8,141.6 460.8,143.2 481,145.8 484.3,143.1 484.4,141.6 484.4,140.4 
		461,140.5 	"/>
</g>
</svg>
